# xmcd CD database file
#
# Track frame offsets:
#	180
#	48590
#	82511
#	122366
#	155563
#	208682
#	222502
#
# Disc length: 3165 seconds
#
# Revision: 0
# Processed by: cddbd v1.4PL0 Copyright (c) Steve Scherf et al.
# Submitted via: CDex 1.50Beta5
#
DISCID=570c5b07
DTITLE=Richie Cole - Live
DYEAR=1978
DGENRE=Jazz
TTITLE0=Tokyo Rose
TTITLE1=As Time Goes By
TTITLE2=Island Breeze
TTITLE3=Donna Lee
TTITLE4=Big Bo's Paradise
TTITLE5=Summertime
TTITLE6=Lester Leaps In
EXTD=YEAR: 1978
EXTT0=
EXTT1=
EXTT2=
EXTT3=
EXTT4=
EXTT5=
EXTT6=
PLAYORDER=
